<?xml version="1.0" encoding="UTF-8" standalone="no"?>
<svg
   xmlns:dc="http://purl.org/dc/elements/1.1/"
   xmlns:cc="http://creativecommons.org/ns#"
   xmlns:rdf="http://www.w3.org/1999/02/22-rdf-syntax-ns#"
   xmlns:svg="http://www.w3.org/2000/svg"
   xmlns="http://www.w3.org/2000/svg"
   xmlns:xlink="http://www.w3.org/1999/xlink"
   xmlns:sodipodi="http://sodipodi.sourceforge.net/DTD/sodipodi-0.dtd"
   xmlns:inkscape="http://www.inkscape.org/namespaces/inkscape"
   width="640"
   height="480"
   version="1.1"
   id="svg19"
   sodipodi:docname="iniciales2.svg"
   inkscape:version="0.92.4 (5da689c313, 2019-01-14)">
  <metadata
     id="metadata23">
    <rdf:RDF>
      <cc:Work
         rdf:about="">
        <dc:format>image/svg+xml</dc:format>
        <dc:type
           rdf:resource="http://purl.org/dc/dcmitype/StillImage" />
        <dc:title></dc:title>
      </cc:Work>
    </rdf:RDF>
  </metadata>
  <sodipodi:namedview
     pagecolor="#ffffff"
     bordercolor="#666666"
     borderopacity="1"
     objecttolerance="10"
     gridtolerance="10"
     guidetolerance="10"
     inkscape:pageopacity="0"
     inkscape:pageshadow="2"
     inkscape:window-width="1366"
     inkscape:window-height="689"
     id="namedview21"
     showgrid="false"
     inkscape:zoom="0.69532167"
     inkscape:cx="366.5329"
     inkscape:cy="277.54634"
     inkscape:window-x="-9"
     inkscape:window-y="-9"
     inkscape:window-maximized="1"
     inkscape:current-layer="svg19" />
  <!-- Created with SVG-edit - https://github.com/SVG-Edit/svgedit-->
  <defs
     id="defs11">
    <symbol
       height="297mm"
       id="svg_18"
       viewBox="0 0 210 297"
       width="210mm">
      <metadata
         id="svg_17">image/svg+xml</metadata>
      <g
         id="svg_10">
        <g
           fill="#000080"
           id="svg_11"
           transform="matrix(0.03527778,0,0,-0.03527778,30.968847,69.77671)">
          <path
             d="m450,904c-38,-16 -60,-48 -60,-88l0,-41l-25,30c-13,17 -24,35 -25,41c0,6 -8,18 -18,27c-16,14 -43,17 -170,17l-152,0l0,-75l0,-74l111,-157l111,-156l-7,-118c-9,-151 -10,-150 155,-150c164,0 160,-4 161,163l0,132l60,54l60,54l-5,-124c-3,-68 -8,-152 -11,-185c-9,-87 2,-94 162,-94c70,0 124,-4 128,-10c8,-13 68,-13 157,1c117,19 146,28 181,58l32,29l37,-32c62,-54 96,-59 336,-51c267,9 253,-1 245,179c-4,87 -3,125 6,130c6,4 11,32 11,64c0,51 -3,60 -36,93l-35,36l25,17c23,14 26,24 26,70c0,63 -11,76 -90,101c-30,10 -72,26 -92,36c-56,29 -134,25 -199,-8c-41,-22 -70,-29 -130,-32c-65,-2 -81,-7 -99,-26l-22,-23l-32,35c-57,66 -94,76 -295,73c-97,-2 -246,0 -331,4c-85,3 -162,3 -170,0zm206,-53c23,-14 35,-16 43,-8c8,8 27,8 71,-1c39,-7 71,-7 92,-1c57,16 190,22 234,10c50,-13 100,-46 128,-84c31,-42 30,-156 -2,-189l-22,-24l23,-22l23,-22l12,75c12,79 28,118 69,173c23,30 28,32 86,32c45,0 79,8 122,27c79,35 122,33 230,-10c77,-30 90,-39 93,-60c3,-22 -5,-29 -57,-56c-33,-17 -79,-42 -102,-56c-27,-17 -51,-25 -72,-23c-28,3 -32,7 -35,36c-4,35 -40,62 -85,62c-22,0 -25,-5 -31,-52c-12,-102 -7,-245 10,-288c22,-53 68,-77 138,-72c18,2 19,10 14,132l-6,130l66,35c37,19 75,35 86,35c31,0 96,-69 96,-101c0,-15 -5,-31 -11,-35c-8,-4 -10,-50 -8,-143l4,-136l-199,-8c-237,-11 -258,-6 -335,78c-46,51 -49,53 -55,31c-10,-42 -79,-94 -133,-101c-26,-3 -70,-10 -96,-16c-72,-14 -75,-13 -108,41c-17,28 -32,50 -33,50c-2,0 -3,-17 -2,-37l1,-38l-109,0l-110,0l3,236l3,235l-106,-102l-105,-103l-3,-133l-3,-133l-105,0l-105,0l-3,129l-3,129l-114,161c-84,117 -114,168 -113,186l3,25l125,0c117,0 124,-1 130,-21c8,-32 151,-225 164,-221c20,6 56,69 56,96c-1,30 -16,53 -47,70c-26,13 -31,52 -9,70c41,34 155,41 202,12zm904,-276c18,-20 26,-58 36,-167c5,-48 3,-58 -9,-58c-20,0 -46,26 -58,57c-11,29 -12,194 -2,220c7,15 8,15 11,-7c2,-14 12,-34 22,-45z"
             fill="#000080"
             id="svg_16" />
          <path
             d="m493,828c-29,-14 -29,-22 1,-41c34,-23 50,-76 37,-124c-13,-44 -73,-119 -88,-110c-15,10 -183,244 -183,256c0,7 -37,11 -100,11c-55,0 -100,-3 -100,-7c0,-5 52,-80 116,-168l115,-160l-3,-123l-3,-122l85,0l85,0l-2,132l-2,133l81,70c84,73 148,153 148,187c0,11 -13,33 -29,49c-25,25 -37,29 -83,28c-29,0 -63,-5 -75,-11z"
             fill="#000080"
             id="svg_15" />
          <path
             d="m895,819c-16,-6 -63,-8 -102,-5l-73,6l0,-268c0,-147 -3,-277 -6,-289c-6,-23 -5,-23 80,-23l86,0l-6,55c-4,35 -3,55 3,55c14,0 81,-75 95,-106c10,-22 17,-24 47,-20c20,3 59,8 86,12c95,12 155,71 155,152c0,55 -20,94 -67,129c-21,15 -39,28 -41,29c-1,1 13,17 33,37c30,30 35,42 35,82c0,57 -22,97 -74,133c-35,24 -49,27 -130,29c-50,1 -104,-2 -121,-8zm125,-44c52,-27 63,-136 19,-183c-27,-30 -56,-36 -84,-18c-31,20 -32,39 -4,58c21,13 21,15 4,32c-10,10 -24,14 -34,11c-9,-4 -22,-9 -28,-12c-10,-4 -13,11 -13,55c0,67 2,69 73,71c21,0 51,-6 67,-14zm-94,-227c29,-17 54,-22 112,-22c65,-1 76,-4 93,-25c59,-72 -32,-152 -157,-137c-92,11 -94,13 -94,116c0,50 2,90 4,90c3,0 22,-10 42,-22z"
             fill="#000080"
             id="svg_14" />
          <path
             d="m900,468c0,-49 3,-56 25,-66c59,-27 177,-2 190,39c4,10 1,27 -4,38c-9,16 -24,20 -93,23c-46,3 -91,8 -100,12c-16,7 -18,2 -18,-46z"
             fill="#000080"
             id="svg_13" />
          <path
             d="m1586,805c-46,-27 -146,-49 -186,-40c-23,5 -31,1 -51,-26c-114,-160 -81,-403 66,-486c34,-19 55,-23 141,-23c55,0 141,3 190,6l89,7l-4,123c-2,100 0,129 12,148c15,22 14,25 -17,55c-17,17 -36,31 -42,31c-5,0 -38,-15 -71,-33c-48,-26 -60,-36 -53,-47c6,-8 10,-68 10,-132l0,-118l-62,0c-74,0 -118,22 -145,72c-15,28 -18,56 -17,188c1,86 6,167 13,183c14,36 53,36 133,0l59,-26l-21,-22c-38,-40 -4,-38 67,4c38,21 85,48 106,58l38,19l-93,35c-51,20 -100,38 -108,41c-8,4 -32,-4 -54,-17z"
             fill="#000080"
             id="svg_12" />
        </g>
      </g>
    </symbol>
  </defs>
  <g
     id="g4608"
     transform="translate(0,-2.8763666)"
     inkscape:export-xdpi="99.331673"
     inkscape:export-ydpi="99.331673">
    <rect
       ry="0.039651889"
       y="1.0849898"
       x="-2.8763654"
       height="483.22955"
       width="645.74432"
       id="rect27"
       style="fill:#000000;stroke-width:1.26327074" />
    <g
       transform="translate(11.505466,11.505467)"
       id="g4590">
      <g
         class="layer"
         id="g17"
         transform="translate(120.8074,-71.909165)"
         style="fill:#ff0000">
        <title
           id="title13">Layer 1</title>
        <use
           id="svg_19"
           transform="matrix(1.84007,0,0,2.87437,-432.118,-862.077)"
           x="81.674995"
           xlink:href="#svg_18"
           y="311.85001"
           width="100%"
           height="100%"
           style="fill:#ff0000" />
        <g
           id="svg_20"
           style="fill:#ff0000" />
      </g>
      <path
         style="fill:#ff0000;stroke-width:1.43818331"
         d="m 237.88098,226.73975 0.19575,-20.58521 -11.64145,-25.4955 c -6.4028,-14.02252 -11.64146,-26.11619 -11.64146,-26.87483 0,-1.60359 15.76338,-1.84569 18.145,-0.27868 0.88324,0.58114 3.7179,5.91049 6.29926,11.84299 7.58071,17.42209 14.31257,30.20185 15.90912,30.20185 0.81745,0 3.06812,-3.39771 5.00151,-7.55046 4.05674,-8.71356 4.71833,-21.26579 1.42128,-26.96594 -4.03678,-6.97903 -4.12763,-7.58521 -1.43219,-9.55616 4.52121,-3.30599 11.59173,-2.43603 14.95534,1.84011 5.89797,7.49805 3.19043,16.49959 -11.34717,37.72506 l -8.68301,12.67754 v 21.80222 21.80223 h -8.68887 -8.68887 z"
         id="path29"
         inkscape:connector-curvature="0" />
      <path
         style="fill:#ff0000;stroke-width:1.43818331"
         d="m 309.22273,244.79743 c -3.34749,-8.06847 -8.85281,-16.41273 -10.04326,-15.22228 -0.57783,0.57783 -0.62156,4.84284 -0.0972,9.47779 l 0.95343,8.42718 -8.4641,-0.43712 -8.46409,-0.43712 0.0799,-4.6741 c 0.0439,-2.57075 0.20574,-23.60418 0.35954,-46.74095 l 0.27965,-42.06686 10.42683,-0.46307 c 26.74775,-1.18788 28.06157,-1.07793 32.08968,2.68547 6.15144,5.74719 8.32953,11.34297 8.37158,21.50762 0.03,7.26106 -0.69413,10.54041 -3.24348,14.68808 l -3.28214,5.33988 4.35346,5.44649 c 12.20939,15.27483 7.43235,40.9345 -8.35313,44.86847 -13.26916,3.30687 -12.55147,3.42193 -14.96669,-2.39948 z m 14.29775,-22.49685 c 5.24715,-5.24715 6.36871,-11.186 3.23634,-17.13702 -2.32283,-4.41301 -4.00673,-5.2515 -10.59677,-5.27661 -3.78803,-0.0144 -7.62728,-1.27835 -11.14592,-3.66933 l -5.36749,-3.64731 v 14.1588 c 0,17.96413 1.41215,20.10097 13.44701,20.34775 4.46157,0.0915 6.48674,-0.83619 10.42683,-4.77628 z m -6.25833,-33.94112 c 4.74107,-9.49058 2.2201,-26.51338 -4.45556,-30.08609 -3.84138,-2.05585 -9.28829,-1.97397 -11.43413,0.17187 -0.97816,0.97816 -1.72582,5.66295 -1.72582,10.81378 0,8.9666 0.0478,9.07595 3.58205,8.18892 4.0565,-1.01812 6.6206,2.72232 3.79983,5.54309 -2.1562,2.1562 -2.07481,7.22386 0.15178,9.45045 3.01657,3.01657 7.42797,1.23044 10.08185,-4.08202 z"
         id="path31"
         inkscape:connector-curvature="0" />
      <path
         style="fill:#ff0000;stroke-width:1.43818331"
         d="m 360.61548,247.45672 c -4.79506,-2.09684 -11.47658,-11.17601 -14.19634,-19.29067 -3.32036,-9.90658 -4.48893,-32.99475 -2.25025,-44.4596 2.65787,-13.61161 7.07819,-23.05349 10.38758,-22.18807 3.85761,1.00879 11.50997,-1.39773 17.61187,-5.53859 2.89736,-1.96621 5.80072,-3.57492 6.4519,-3.57492 0.65119,0 5.77539,2.65824 11.38712,5.90719 l 10.20315,5.90719 -10.14319,8.47464 c -10.65188,8.89966 -13.94644,10.50471 -11.26046,5.4859 2.27506,-4.25098 1.13471,-6.04496 -6.37479,-10.02874 -9.34502,-4.95752 -11.33499,-3.35926 -12.81663,10.29373 -0.6347,5.84857 -0.92869,19.37073 -0.65331,30.04924 0.39486,15.31146 1.07117,20.59288 3.19955,24.9856 2.93456,6.05656 8.99331,9.5308 16.62084,9.5308 h 4.44273 l -0.28,-22.55697 -0.27999,-22.55698 4.15301,-3.40142 c 7.92565,-6.49133 8.68511,-6.56751 12.00004,-1.20385 2.7277,4.41352 2.86569,5.59251 1.35616,11.58739 -1.04788,4.16149 -1.4155,13.10888 -0.97653,23.76732 0.55073,13.37231 0.28889,17.25265 -1.20282,17.82507 -3.82205,1.46666 -34.43383,2.27393 -37.37964,0.98574 z"
         id="path33"
         inkscape:connector-curvature="0" />
      <path
         style="fill:#ff0000;stroke-width:1.43818331"
         d="m 305.39937,261.91064 c -1.1865,-0.69781 -7.52023,-1.61676 -14.07496,-2.04209 -6.71964,-0.43604 -12.9264,-1.61051 -14.23041,-2.69273 -2.05195,-1.70297 -2.19968,-5.38143 -1.31022,-32.62292 0.70034,-21.44921 0.54422,-30.42029 -0.51795,-29.76384 -0.83625,0.51683 -4.10604,4.74714 -7.26621,9.40069 l -5.74575,8.461 v 20.65769 c 0,26.26609 0.0148,26.24109 -15.48304,26.24109 -16.66613,0 -16.50869,0.23986 -15.99817,-24.37371 l 0.41918,-20.20997 -11.79447,-25.74053 C 207.81706,163.95216 207.60291,163.27975 207.60291,152.1921 v -11.29269 l 11.14592,0.0158 c 19.97174,0.0284 21.01805,0.4604 25.60351,10.57225 l 4.00298,8.82739 0.89159,-7.19091 c 1.06953,-8.62602 3.59252,-13.62618 6.94528,-13.76445 15.30745,-0.63129 65.5747,0.57687 69.73997,1.67618 4.93897,1.3035 11.89497,8.35092 14.50767,14.69833 0.44552,1.08236 1.71094,0.45754 3.46697,-1.71187 1.9341,-2.38939 5.05464,-3.77824 10.38092,-4.62021 4.24707,-0.67137 10.22735,-2.95868 13.52045,-5.17123 8.38257,-5.63206 15.1033,-5.25642 26.03947,1.45543 4.74601,2.91277 9.76167,6.65854 11.14592,8.32393 3.55726,4.27975 3.4268,16.98461 -0.22202,21.62334 -2.71112,3.44662 -2.70402,3.53961 0.70071,9.18103 3.41335,5.65567 3.43353,5.92947 2.64715,35.90256 -0.43585,16.61188 -1.07981,31.63055 -1.43102,33.37483 -0.93088,4.62295 -8.35589,6.15941 -29.81081,6.16876 -20.441,0.009 -23.96445,-1.02293 -29.59098,-8.66565 l -3.41556,-4.63947 -4.68315,5.11193 c -3.05786,3.33783 -7.21304,5.86324 -11.97279,7.27673 -10.09459,2.99777 -19.25089,4.07496 -21.81572,2.5665 z m 17.36047,-8.8634 c 10.03911,-2.98977 15.8188,-7.77082 18.76655,-15.524 1.27425,-3.35155 1.55312,-3.14323 6.93118,5.17767 3.08193,4.76834 7.11288,9.20702 8.95768,9.86373 3.61685,1.28752 27.59749,1.16569 39.30876,-0.19972 l 7.19092,-0.83838 -0.46349,-20.66554 c -0.26357,-11.75205 0.19639,-23.04852 1.0664,-26.19036 1.3366,-4.82676 1.07242,-6.46118 -2.09087,-12.93581 -4.34921,-8.90197 -6.74576,-10.08514 -12.69647,-6.2682 -11.4549,7.34745 -10.98378,6.05685 -10.98378,30.08929 0,20.21993 -0.18317,21.70177 -2.68242,21.70177 -4.35506,0 -10.05175,-5.48602 -11.64186,-11.21134 -1.7845,-6.42521 -1.96253,-50.54343 -0.21508,-53.30127 2.95711,-4.66694 9.08119,1.49345 10.51838,10.58073 0.923,5.83619 6.27199,4.16106 17.23459,-5.39729 15.00058,-13.07912 14.6422,-17.18113 -2.28189,-26.11781 -9.01734,-4.76157 -12.06597,-4.67904 -21.94772,0.59416 -4.4469,2.37301 -10.15902,4.31455 -12.69358,4.31455 -2.5983,0 -5.56059,1.09776 -6.79163,2.51682 -2.94032,3.38942 -6.77285,13.95124 -8.23419,22.69206 -1.13942,6.81531 -1.20334,6.5923 -1.36458,-4.76096 -0.19678,-13.85683 -2.14069,-19.26141 -9.4238,-26.20065 -5.85282,-5.57649 -4.57567,-5.43953 -36.76722,-3.94273 -9.98397,0.46422 -14.42657,0.11245 -16.49957,-1.30646 -4.35507,-2.98093 -14.12761,-2.43331 -18.54197,1.03902 -4.87695,3.83621 -4.94407,9.57185 -0.19395,16.57155 1.9775,2.91402 3.54622,6.66406 3.48604,8.33343 -0.15596,4.3264 -3.41795,12.8401 -5.13951,13.41396 -1.33287,0.44429 -14.74762,-26.19753 -16.99348,-33.74922 -0.91097,-3.06313 -1.69684,-3.23592 -14.71755,-3.23592 h -13.75519 l 0.72446,5.40125 c 0.39846,2.97068 5.75056,16.39971 11.89356,29.8423 l 11.1691,24.44106 0.67404,21.9323 0.67403,21.93229 h 11.17693 11.17692 l 0.64172,-21.93229 0.64172,-21.9323 10.31151,-15.82002 10.31151,-15.82001 0.008,37.75231 0.008,37.75231 h 11.50547 11.50546 l 0.0141,-5.39319 0.0141,-5.39318 3.51525,7.55046 c 1.93338,4.15275 4.28422,7.55046 5.22408,7.55046 0.93986,0 6.1011,-1.30807 11.46941,-2.90683 z m 52.60144,-37.72185 c -0.8051,-12.60628 -3.03049,-24.02791 -6.37491,-32.71867 -1.53585,-3.99103 -2.82243,17.86317 -1.75841,29.86895 0.73407,8.28291 1.83653,12.75646 3.63287,14.74138 4.79404,5.29737 5.48211,3.47929 4.50045,-11.89166 z"
         id="path44"
         inkscape:connector-curvature="0" />
      <path
         style="fill:#ff0000;stroke-width:1.43818331"
         d="m 238.48196,227.54995 1.00062,-19.77502 -10.69562,-23.73002 c -14.85061,-32.94859 -14.45499,-30.20185 -4.35006,-30.20185 h 8.39873 l 10.03503,20.49411 c 6.00878,12.27149 10.86822,20.49411 12.11168,20.49411 6.8334,0 11.36055,-24.573 6.5092,-35.33138 -3.03487,-6.73014 -1.76598,-9.0126 5.01038,-9.0126 6.3037,0 10.13378,4.08845 10.13378,10.81739 0,6.42717 -4.52535,16.02875 -14.58472,30.94482 l -6.98802,10.36188 v 22.35679 22.35679 h -8.79081 -8.79081 z"
         id="path46"
         inkscape:connector-curvature="0" />
      <path
         style="fill:#0000ff;stroke-width:1.43818331"
         d="m 238.82135,226.83086 0.71712,-20.49411 -10.23204,-22.65158 c -5.62762,-12.45836 -10.38619,-24.10765 -10.57459,-25.8873 -0.30616,-2.89189 0.37374,-3.28191 6.39836,-3.67037 l 6.74092,-0.43465 9.36881,18.41194 c 5.15285,10.12657 10.31256,19.69771 11.46602,21.26922 2.01829,2.74974 2.20408,2.76056 4.93673,0.28755 4.25029,-3.84646 6.52583,-13.86196 5.52138,-24.30168 -1.8383,-19.1063 -2.03828,-17.62727 2.45291,-18.14144 4.69748,-0.53779 8.91567,2.6561 10.18447,7.71139 1.22148,4.86679 -3.27066,15.7202 -12.67578,30.62582 l -8.0627,12.77808 v 22.49562 22.49562 h -8.47937 -8.47937 z"
         id="path50"
         inkscape:connector-curvature="0" />
      <path
         style="fill:#0000ff;stroke-width:1.43818331"
         d="m 306.81411,239.24777 c -7.00667,-13.40627 -9.25232,-13.76933 -8.25417,-1.33448 0.74996,9.343 0.67298,9.63827 -2.30462,8.83932 -1.69428,-0.4546 -5.18385,-0.83538 -7.7546,-0.84618 l -4.6741,-0.0196 v -45.8087 -45.80871 l 11.86501,-0.92363 c 22.16916,-1.72576 24.88862,-1.41417 30.47642,3.49199 8.19733,7.19735 10.54605,22.32126 5.11862,32.9599 -3.49894,6.85848 -3.59402,9.12121 -0.49117,11.68891 4.01031,3.31867 7.61722,13.08968 7.6505,20.72502 0.0611,14.0039 -7.89605,23.87491 -20.8294,25.8395 l -5.74541,0.87272 z m 17.13266,-17.14105 c 3.29199,-3.74937 4.46353,-6.49647 4.46353,-10.46637 0,-7.92316 -2.97712,-11.22662 -11.09275,-12.30867 -3.7865,-0.50485 -9.00352,-2.20936 -11.59339,-3.78779 -2.58988,-1.57844 -5.01681,-2.86988 -5.39319,-2.86988 -0.37638,0 -0.68433,6.32782 -0.68433,14.06182 0,18.14573 1.37225,20.45458 12.15712,20.45458 6.99032,0 8.08003,-0.45621 12.14301,-5.08369 z m -7.74085,-30.89318 c 1.6094,-1.77837 2.87391,-5.92138 3.27182,-10.71972 1.33114,-16.05174 -2.743,-23.7744 -12.54234,-23.7744 -6.58652,0 -7.28876,1.2584 -7.28876,13.06128 0,8.13079 0.16157,8.51147 3.61245,8.51147 3.40324,0 3.55969,0.32999 2.70136,5.69766 -0.5011,3.13371 -0.52906,6.69321 -0.0621,7.91001 1.2051,3.14044 7.20604,2.74088 10.3076,-0.6863 z"
         id="path52"
         inkscape:connector-curvature="0" />
      <path
         style="fill:#0000ff;stroke-width:1.43818331"
         d="m 355.79789,242.14234 c -8.65918,-9.86227 -10.62471,-16.37295 -11.29129,-37.40161 -0.84875,-26.77541 3.73247,-42.26857 12.49851,-42.26857 2.24366,0 8.1199,-2.08386 13.05831,-4.6308 l 8.97893,-4.63079 9.33653,4.98843 c 5.13509,2.74364 9.55482,5.34163 9.82162,5.77332 0.49368,0.7988 -15.58222,14.31985 -17.02564,14.31985 -0.43445,0 -0.99671,-1.43392 -1.24948,-3.18649 -0.59461,-4.12281 -9.35476,-10.01354 -14.07281,-9.46322 -6.15004,0.71735 -7.50027,8.03656 -6.97656,37.81792 0.37709,21.44349 0.89145,26.68548 2.9964,30.53705 3.11078,5.69202 9.17734,9.01299 16.46442,9.01299 h 5.48568 l -0.0211,-22.47765 -0.0211,-22.47766 5.4948,-4.46248 5.4948,-4.46248 2.50494,3.32087 c 2.21624,2.93813 2.4337,6.16733 1.88685,28.01877 -0.33995,13.58385 -0.91905,25.0215 -1.28689,25.417 -0.36784,0.3955 -8.90748,0.94275 -18.97697,1.21612 l -18.30816,0.49704 z"
         id="path54"
         inkscape:connector-curvature="0" />
    </g>
    <text
       id="text4576"
       y="353.43988"
       x="76.223724"
       style="font-style:normal;font-weight:normal;font-size:40px;line-height:1.25;font-family:sans-serif;letter-spacing:0px;word-spacing:0px;fill:#ffffff;fill-opacity:1;stroke:none"
       xml:space="preserve"><tspan
         y="353.43988"
         x="76.223724"
         id="tspan4574"
         sodipodi:role="line">YDRI BEARD GONZALEZ</tspan></text>
  </g>
</svg>
