<?xml version="1.0"?>
<svg width="640" height="480" xmlns="http://www.w3.org/2000/svg" xmlns:svg="http://www.w3.org/2000/svg" xmlns:xlink="http://www.w3.org/1999/xlink">
 <!-- Created with SVG-edit - https://github.com/SVG-Edit/svgedit-->
 <defs>
  <symbol height="297mm" id="svg_18" viewBox="0 0 210 297" width="210mm" xmlns="http://www.w3.org/2000/svg" xmlns:svg="http://www.w3.org/2000/svg">

   <metadata id="svg_17">image/svg+xml</metadata>
   <g id="svg_10">
    <g fill="#000080" id="svg_11" transform="matrix(0.03527778,0,0,-0.03527778,30.968847,69.77671)">
     <path d="m450,904c-38,-16 -60,-48 -60,-88l0,-41l-25,30c-13,17 -24,35 -25,41c0,6 -8,18 -18,27c-16,14 -43,17 -170,17l-152,0l0,-75l0,-74l111,-157l111,-156l-7,-118c-9,-151 -10,-150 155,-150c164,0 160,-4 161,163l0,132l60,54l60,54l-5,-124c-3,-68 -8,-152 -11,-185c-9,-87 2,-94 162,-94c70,0 124,-4 128,-10c8,-13 68,-13 157,1c117,19 146,28 181,58l32,29l37,-32c62,-54 96,-59 336,-51c267,9 253,-1 245,179c-4,87 -3,125 6,130c6,4 11,32 11,64c0,51 -3,60 -36,93l-35,36l25,17c23,14 26,24 26,70c0,63 -11,76 -90,101c-30,10 -72,26 -92,36c-56,29 -134,25 -199,-8c-41,-22 -70,-29 -130,-32c-65,-2 -81,-7 -99,-26l-22,-23l-32,35c-57,66 -94,76 -295,73c-97,-2 -246,0 -331,4c-85,3 -162,3 -170,0zm206,-53c23,-14 35,-16 43,-8c8,8 27,8 71,-1c39,-7 71,-7 92,-1c57,16 190,22 234,10c50,-13 100,-46 128,-84c31,-42 30,-156 -2,-189l-22,-24l23,-22l23,-22l12,75c12,79 28,118 69,173c23,30 28,32 86,32c45,0 79,8 122,27c79,35 122,33 230,-10c77,-30 90,-39 93,-60c3,-22 -5,-29 -57,-56c-33,-17 -79,-42 -102,-56c-27,-17 -51,-25 -72,-23c-28,3 -32,7 -35,36c-4,35 -40,62 -85,62c-22,0 -25,-5 -31,-52c-12,-102 -7,-245 10,-288c22,-53 68,-77 138,-72c18,2 19,10 14,132l-6,130l66,35c37,19 75,35 86,35c31,0 96,-69 96,-101c0,-15 -5,-31 -11,-35c-8,-4 -10,-50 -8,-143l4,-136l-199,-8c-237,-11 -258,-6 -335,78c-46,51 -49,53 -55,31c-10,-42 -79,-94 -133,-101c-26,-3 -70,-10 -96,-16c-72,-14 -75,-13 -108,41c-17,28 -32,50 -33,50c-2,0 -3,-17 -2,-37l1,-38l-109,0l-110,0l3,236l3,235l-106,-102l-105,-103l-3,-133l-3,-133l-105,0l-105,0l-3,129l-3,129l-114,161c-84,117 -114,168 -113,186l3,25l125,0c117,0 124,-1 130,-21c8,-32 151,-225 164,-221c20,6 56,69 56,96c-1,30 -16,53 -47,70c-26,13 -31,52 -9,70c41,34 155,41 202,12zm904,-276c18,-20 26,-58 36,-167c5,-48 3,-58 -9,-58c-20,0 -46,26 -58,57c-11,29 -12,194 -2,220c7,15 8,15 11,-7c2,-14 12,-34 22,-45z" fill="#000080" id="svg_16"/>
     <path d="m493,828c-29,-14 -29,-22 1,-41c34,-23 50,-76 37,-124c-13,-44 -73,-119 -88,-110c-15,10 -183,244 -183,256c0,7 -37,11 -100,11c-55,0 -100,-3 -100,-7c0,-5 52,-80 116,-168l115,-160l-3,-123l-3,-122l85,0l85,0l-2,132l-2,133l81,70c84,73 148,153 148,187c0,11 -13,33 -29,49c-25,25 -37,29 -83,28c-29,0 -63,-5 -75,-11z" fill="#000080" id="svg_15"/>
     <path d="m895,819c-16,-6 -63,-8 -102,-5l-73,6l0,-268c0,-147 -3,-277 -6,-289c-6,-23 -5,-23 80,-23l86,0l-6,55c-4,35 -3,55 3,55c14,0 81,-75 95,-106c10,-22 17,-24 47,-20c20,3 59,8 86,12c95,12 155,71 155,152c0,55 -20,94 -67,129c-21,15 -39,28 -41,29c-1,1 13,17 33,37c30,30 35,42 35,82c0,57 -22,97 -74,133c-35,24 -49,27 -130,29c-50,1 -104,-2 -121,-8zm125,-44c52,-27 63,-136 19,-183c-27,-30 -56,-36 -84,-18c-31,20 -32,39 -4,58c21,13 21,15 4,32c-10,10 -24,14 -34,11c-9,-4 -22,-9 -28,-12c-10,-4 -13,11 -13,55c0,67 2,69 73,71c21,0 51,-6 67,-14zm-94,-227c29,-17 54,-22 112,-22c65,-1 76,-4 93,-25c59,-72 -32,-152 -157,-137c-92,11 -94,13 -94,116c0,50 2,90 4,90c3,0 22,-10 42,-22z" fill="#000080" id="svg_14"/>
     <path d="m900,468c0,-49 3,-56 25,-66c59,-27 177,-2 190,39c4,10 1,27 -4,38c-9,16 -24,20 -93,23c-46,3 -91,8 -100,12c-16,7 -18,2 -18,-46z" fill="#000080" id="svg_13"/>
     <path d="m1586,805c-46,-27 -146,-49 -186,-40c-23,5 -31,1 -51,-26c-114,-160 -81,-403 66,-486c34,-19 55,-23 141,-23c55,0 141,3 190,6l89,7l-4,123c-2,100 0,129 12,148c15,22 14,25 -17,55c-17,17 -36,31 -42,31c-5,0 -38,-15 -71,-33c-48,-26 -60,-36 -53,-47c6,-8 10,-68 10,-132l0,-118l-62,0c-74,0 -118,22 -145,72c-15,28 -18,56 -17,188c1,86 6,167 13,183c14,36 53,36 133,0l59,-26l-21,-22c-38,-40 -4,-38 67,4c38,21 85,48 106,58l38,19l-93,35c-51,20 -100,38 -108,41c-8,4 -32,-4 -54,-17z" fill="#000080" id="svg_12"/>
    </g>
   </g>
  </symbol>
 </defs>
 <g class="layer">
  <title>Layer 1</title>
  <use id="svg_19" transform="matrix(1.84007 0 0 2.87437 -432.118 -862.077)" x="81.674999" xlink:href="#svg_18" y="311.849995"/>
  <g id="svg_20"/>
 </g>
</svg>